:SAMPLES-PER-SECOND 30
:FULLY-SPECIFIED
:DEGREES
538
root  -49.9915 26.8384 -0.248704 -147.004 63.1262 -173.055
RightUpLeg  -77.1177 -4.59234 4.02082
RightLeg  77.834 1.31884 4.32018
RightFoot  -13.7305 -0.186947 -1.03875
RightToes  -23.5412 -0.102066 -0.204666
Spine  5.40621 -1.15121 0.234867
Spine1  10.8926 -2.76611 1.55989
HEad  -105.872 -20.6846 16.7035
LeftShoulder1  -1.94126e-019 -3.10601e-018 -2.51263e-017
LeftArm  -17.3946 19.7922 -65.9473
LeftForeArm  22.0614 1.7141 0.297365
LeftHand  -0.186446 3.49754 10.7794
RightShoulder  -4.96962e-017 0 -2.36833e-017
RightArm  -38.608 -23.6839 66.783
RightForeArm  66.0113 -1.47714 -0.300738
RightHand  0.208348 -8.58807 -8.77355
LeftUpLeg  -59.6737 9.07066 -0.00334323
LeftLeg  83.6022 4.18627 22.2824
LeftFoot  -31.1322 -3.51419 -12.407
LeftToes  -15.7888 1.70063e-006 7.6642e-008
539
root  -49.8257 26.1458 -0.328351 -148.605 63.0037 -173.464
RightUpLeg  -77.6712 -4.91625 3.80282
RightLeg  81.5887 1.0216 4.30683
RightFoot  -15.5884 -0.232978 -1.18832
RightToes  -23.8008 -0.100098 -0.203076
Spine  5.23301 -0.583915 0.134058
Spine1  10.3422 -1.56564 1.09882
HEad  -104.915 -21.6 16.8605
LeftShoulder1  -1.94126e-019 -3.10601e-018 -2.51263e-017
LeftArm  -21.6183 5.19246 -66.3212
LeftForeArm  26.7166 -1.14344 -0.200961
LeftHand  -0.212845 0.115388 4.71456
RightShoulder  -4.96962e-017 0 -2.36833e-017
RightArm  -36.768 -9.1627 68.4774
RightForeArm  67.2032 -0.793737 -0.189321
RightHand  0.00128852 -5.65628 -9.78191
LeftUpLeg  -59.5396 9.01052 0.0407487
LeftLeg  86.6962 2.94077 22.6561
LeftFoot  -32.8604 -3.95317 -13.1886
LeftToes  -15.4467 1.70063e-006 7.6642e-008
540
root  -49.4527 25.6161 -0.512447 -150.751 62.7331 -173.317
RightUpLeg  -76.1936 -5.4155 3.82571
RightLeg  84.5649 0.774812 4.17954
RightFoot  -17.7527 -0.280272 -1.27964
RightToes  -23.4307 -0.0984403 -0.200848
Spine  6.16706 -0.0169339 0.258966
Spine1  11.2101 -0.363132 0.840387
HEad  -103.571 -22.4148 16.539
LeftShoulder1  -1.94126e-019 -3.10601e-018 -2.51263e-017
LeftArm  -20.5756 -11.5654 -67.848
LeftForeArm  29.9178 -4.48578 -0.790857
LeftHand  -0.109819 -2.16307 1.87525
RightShoulder  -4.96962e-017 0 -2.36833e-017
RightArm  -35.6211 7.64721 68.8975
RightForeArm  70.0275 1.23642 0.151654
RightHand  -0.308997 -1.60431 -9.32467
LeftUpLeg  -57.2494 9.11117 0.646321
LeftLeg  88.7589 2.05518 22.515
LeftFoot  -34.8102 -4.40044 -13.8131
LeftToes  -15.7364 1.70063e-006 7.6642e-008
541
root  -49.0231 25.5113 -0.737302 -152.111 62.3381 -172.981
RightUpLeg  -73.9768 -6.07941 4.13095
RightLeg  85.4887 0.669801 3.91838
RightFoot  -19.2674 -0.293767 -1.21281
RightToes  -22.7355 -0.0976498 -0.199317
Spine  7.07327 0.351932 0.409288
Spine1  11.897 0.579199 0.615399
HEad  -102.699 -23.164 16.398
LeftShoulder1  -1.94126e-019 -3.10601e-018 -2.51263e-017
LeftArm  -17.6658 -29.7573 -69.6372
LeftForeArm  34.4412 -6.88851 -1.2057
LeftHand  -0.256476 -2.97215 3.79292
RightShoulder  -4.96962e-017 0 -2.36833e-017
RightArm  -32.7907 25.3853 68.0918
RightForeArm  74.1222 4.74363 0.749218
RightHand  -0.681149 2.50908 -10.2026
LeftUpLeg  -54.738 9.27869 1.31326
LeftLeg  89.1336 1.85946 22.0934
LeftFoot  -35.2679 -4.44124 -13.7485
LeftToes  -17.1721 1.70063e-006 7.6642e-008
542
root  -48.5608 25.8876 -1.01595 -153.211 61.9948 -172.561
RightUpLeg  -70.4922 -6.89746 4.37242
RightLeg  84.0631 0.791887 4.06452
RightFoot  -19.7293 -0.297349 -1.1913
RightToes  -22.9126 -0.0982833 -0.199818
Spine  7.25225 0.368971 0.473852
Spine1  11.6487 0.854801 0.508177
HEad  -101.637 -24.1738 15.6443
LeftShoulder1  -1.94126e-019 -3.10601e-018 -2.51263e-017
LeftArm  -15.6705 -46.8044 -71.0695
LeftForeArm  34.3818 -9.90984 -1.73614
LeftHand  -0.369505 -2.95832 5.37191
RightShoulder  -4.96962e-017 0 -2.36833e-017
RightArm  -26.5784 42.0263 65.0198
RightForeArm  72.4658 9.73469 1.51104
RightHand  -1.09335 4.06674 -13.6324
LeftUpLeg  -51.3494 9.81456 1.81274
LeftLeg  87.2131 2.57702 21.5623
LeftFoot  -34.9463 -4.27168 -13.3519
LeftToes  -17.8161 1.70063e-006 7.6642e-008
543
root  -48.0598 26.7033 -1.35236 -154.114 61.9666 -171.888
RightUpLeg  -65.5706 -7.51983 4.44719
RightLeg  80.2529 1.16914 4.49127
RightFoot  -19.2456 -0.297398 -1.23664
RightToes  -23.5783 -0.102291 -0.204952
Spine  6.61415 0.425077 0.397345
Spine1  10.5146 1.2439 0.359152
HEad  -101.369 -25.0996 15.0864
LeftShoulder1  -1.94126e-019 -3.10601e-018 -2.51263e-017
LeftArm  -9.4943 -61.83 -71.6402
LeftForeArm  32.6425 -14.1917 -2.18287
LeftHand  -0.32982 -2.45033 5.09453
RightShoulder  -4.96962e-017 0 -2.36833e-017
RightArm  -22.2248 56.4579 57.0814
RightForeArm  65.4725 15.1011 0.970656
RightHand  -1.16914 4.04556 -14.5808
LeftUpLeg  -46.5727 10.9441 2.28543
LeftLeg  82.7275 4.15673 20.4902
LeftFoot  -34.4227 -3.96682 -12.5963
LeftToes  -17.1427 1.70063e-006 7.6642e-008
544
root  -47.5289 27.9163 -1.78187 -155.032 61.9028 -171.706
RightUpLeg  -59.7856 -8.4619 4.22309
RightLeg  74.1477 1.91143 5.13781
RightFoot  -17.5958 -0.282063 -1.30819
RightToes  -25.3057 -0.112968 -0.218053
Spine  5.02715 0.340929 0.181967
Spine1  8.04651 1.41616 -0.0152916
HEad  -101.289 -25.1221 14.4818
LeftShoulder1  -1.94126e-019 -3.10601e-018 -2.51263e-017
LeftArm  -4.06964 -73.6014 -67.3819
LeftForeArm  33.1246 -19.3851 -2.41269
LeftHand  -0.431309 -2.13713 6.85034
RightShoulder  -4.96962e-017 0 -2.36833e-017
RightArm  -31.3048 66.459 40.2986
RightForeArm  62.099 20.5389 1.43116
RightHand  -1.10534 3.03226 -15.3916
LeftUpLeg  -41.0687 11.9368 2.50943
LeftLeg  75.7779 6.36073 18.9036
LeftFoot  -32.5154 -3.34355 -11.2691
LeftToes  -17.4184 1.70063e-006 7.6642e-008
545
root  -46.8435 29.5076 -2.36222 -156.347 61.9785 -171.813
RightUpLeg  -52.513 -9.83441 3.74497
RightLeg  65.7661 3.20894 5.90208
RightFoot  -14.0787 -0.220074 -1.27297
RightToes  -28.4974 -0.133712 -0.241388
Spine  3.00683 0.223816 -0.00797021
Spine1  4.87617 1.37486 -0.352288
HEad  -99.5956 -25.4887 12.7304
LeftShoulder1  -1.94126e-019 -3.10601e-018 -2.51263e-017
LeftArm  -16.7459 -81.406 -46.5021
LeftForeArm  35.4885 -24.8924 -3.37578
LeftHand  -0.64142 -1.48164 10.9988
RightShoulder  -4.96962e-017 0 -2.36833e-017
RightArm  -50.945 70.4936 14.4964
RightForeArm  59.8605 25.0788 2.35316
RightHand  -1.03421 1.53995 -17.395
LeftUpLeg  -34.182 13.1432 2.61621
LeftLeg  66.3956 8.96824 16.7994
LeftFoot  -27.7691 -2.3068 -9.15128
LeftToes  -20.9495 1.70063e-006 7.6642e-008
546
root  -45.958 31.5867 -3.08517 -157.567 62.7419 -172.141
RightUpLeg  -44.2898 -11.0447 2.80752
RightLeg  54.9056 5.72238 7.01194
RightFoot  -6.43053 -0.0700736 -0.746082
RightToes  -34.075 -0.172965 -0.279267
Spine  1.0323 -0.339428 -0.492547
Spine1  1.45832 -0.0341506 -0.829156
HEad  -96.0177 -24.9736 10.41
LeftShoulder1  -1.94126e-019 -3.10601e-018 -2.51263e-017
LeftArm  -56.3074 -80.4157 -1.19707
LeftForeArm  36.2983 -37.9243 -6.42388
LeftHand  -0.714478 -1.40747 12.3556
RightShoulder  -4.96962e-017 0 -2.36833e-017
RightArm  -69.5741 70.5763 -8.24144
RightForeArm  56.9308 31.0872 3.70996
RightHand  -0.91951 0.276241 -18.825
LeftUpLeg  -26.4545 15.2949 2.61317
LeftLeg  54.6059 11.3427 13.6057
LeftFoot  -17.3533 -0.831577 -5.28364
LeftToes  -30.314 1.70063e-006 7.6642e-008
547
root  -44.863 34.1633 -3.81465 -157.107 63.7588 -171.113
RightUpLeg  -34.1233 -10.8031 2.08211
RightLeg  38.9467 9.57106 6.68665
RightFoot  6.91415 -0.0695816 1.61556
RightToes  -43.6099 -0.247944 -0.334593
Spine  -0.794522 -0.825723 -0.764756
Spine1  -1.9082 -1.16647 -1.09825
HEad  -90.732 -23.8586 7.82269
LeftShoulder1  -1.94126e-019 -3.10601e-018 -2.51263e-017
LeftArm  -74.8096 -76.287 19.0556
LeftForeArm  37.0047 -49.6457 -10.344
LeftHand  -0.74504 -1.88416 12.066
RightShoulder  -4.96962e-017 0 -2.36833e-017
RightArm  -80.9176 67.3722 -20.8994
RightForeArm  53.0506 39.6258 5.9707
RightHand  -0.831669 -0.0832902 -18.1718
LeftUpLeg  -18.8232 18.8297 3.7302
LeftLeg  41.0672 11.3062 8.5138
LeftFoot  1.39138 -0.00515075 0.585768
LeftToes  -50.227 1.70063e-006 7.6642e-008
548
root  -43.6935 36.924 -4.5451 -157.551 65.5308 -171.542
RightUpLeg  -22.8903 -7.53352 -0.024514
RightLeg  18.285 12.9687 3.34804
RightFoot  26.8393 -1.40224 6.33295
RightToes  -46.8021 -0.274972 -0.350235
Spine  -2.69293 -1.20004 -1.38359
Spine1  -5.53327 -1.994 -2.09403
HEad  -83.5863 -22.6592 5.70503
LeftShoulder1  -1.94126e-019 -3.10601e-018 -2.51263e-017
LeftArm  -85.6387 -71.99 31.3314
LeftForeArm  37.3599 -57.7677 -14.5549
LeftHand  -0.707777 -1.77322 11.6439
RightShoulder  -4.96962e-017 0 -2.36833e-017
RightArm  -86.5374 62.8422 -26.797
RightForeArm  48.2925 47.6054 8.74875
RightHand  -0.710395 -0.82901 -18.0112
LeftUpLeg  -11.5197 21.9135 4.90143
LeftLeg  26.7835 5.48699 2.33174
LeftFoot  26.3016 -0.652493 2.95371
LeftToes  -56.2238 1.70063e-006 7.6642e-008
549
root  -42.6906 39.349 -5.22844 -157.811 67.2215 -172.951
RightUpLeg  -16.5449 -10.0785 -0.641194
RightLeg  3.57308 14.8744 -0.0235597
RightFoot  41.0139 -3.64577 10.1803
RightToes  -41.2128 -0.228243 -0.32187
Spine  -4.50746 -1.73287 -1.94107
Spine1  -9.0759 -3.24641 -2.97466
HEad  -78.1008 -21.1959 4.99135
LeftShoulder1  -1.94126e-019 -3.10601e-018 -2.51263e-017
LeftArm  -97.9599 -66.5575 43.8601
LeftForeArm  39.3137 -61.84 -17.4072
LeftHand  -0.714742 -2.05202 11.336
RightShoulder  -4.96962e-017 0 -2.36833e-017
RightArm  -94.3026 56.6321 -35.5999
RightForeArm  43.8865 49.7823 9.88899
RightHand  -0.515401 -2.34362 -19.3939
LeftUpLeg  -7.11953 19.143 5.35546
LeftLeg  16.6813 -1.1995 -0.279295
LeftFoot  41.2402 0.261623 -0.533785
LeftToes  -42.4039 1.70063e-006 7.6642e-008
